<svg width="78" height="24" viewBox="0 0 78 24" fill="none" xmlns="http://www.w3.org/2000/svg">
<path d="M23.5099 10.7021L13.9999 1.89715C13.5838 1.51128 13.0373 1.29688 12.4699 1.29688C11.9024 1.29688 11.3559 1.51128 10.9399 1.89715L1.48986 10.7021C1.3802 10.8048 1.30389 10.938 1.27083 11.0846C1.23777 11.2311 1.24947 11.3842 1.30443 11.524C1.35938 11.6638 1.45505 11.7839 1.57904 11.8687C1.70304 11.9535 1.84964 11.9991 1.99986 11.9996H3.49986V20.9996C3.49986 21.5964 3.73691 22.1687 4.15887 22.5906C4.58083 23.0126 5.15312 23.2496 5.74986 23.2496H19.2499C19.8466 23.2496 20.4189 23.0126 20.8409 22.5906C21.2628 22.1687 21.4999 21.5964 21.4999 20.9996V11.9996H22.9999C23.1501 11.9991 23.2967 11.9535 23.4207 11.8687C23.5447 11.7839 23.6403 11.6638 23.6953 11.524C23.7502 11.3842 23.762 11.2311 23.7289 11.0846C23.6958 10.938 23.6195 10.8048 23.5099 10.7021Z" fill="white"/>
<path d="M38.15 16.246V11.296C37.574 10.852 36.86 10.63 36.008 10.63C34.94 10.63 34.208 11.068 33.812 11.944C33.488 12.688 33.326 13.702 33.326 14.986C33.326 17.47 33.998 18.712 35.342 18.712C36.098 18.712 36.752 18.424 37.304 17.848C37.868 17.272 38.15 16.738 38.15 16.246ZM35 19.27C33.968 19.27 33.098 18.904 32.39 18.172C31.682 17.428 31.328 16.324 31.328 14.86C31.328 13.384 31.754 12.22 32.606 11.368C33.47 10.516 34.616 10.09 36.044 10.09C36.788 10.09 37.49 10.264 38.15 10.612V6.076L36.566 6.004L36.548 5.59L39.878 5.212V18.586L41.408 18.658L41.426 19.072L38.24 19.288L38.276 17.56H38.168C37.88 18.1 37.442 18.52 36.854 18.82C36.266 19.12 35.648 19.27 35 19.27ZM54.2291 10.09C56.1491 10.09 57.1091 11.014 57.1091 12.862C57.1091 14.194 57.0671 16.066 56.9831 18.478L58.2611 18.568V19H54.2471V18.568L55.2191 18.496C55.3031 15.328 55.3451 13.408 55.3451 12.736C55.3451 12.052 55.2191 11.542 54.9671 11.206C54.7151 10.87 54.3071 10.702 53.7431 10.702C53.1791 10.702 52.6571 10.942 52.1771 11.422C51.6971 11.89 51.3731 12.394 51.2051 12.934C51.2051 14.23 51.1631 16.078 51.0791 18.478L52.3571 18.568V19H48.3431V18.568L49.3151 18.496C49.3991 15.328 49.4411 13.408 49.4411 12.736C49.4411 12.052 49.3151 11.542 49.0631 11.206C48.8111 10.87 48.3731 10.702 47.7491 10.702C47.1371 10.702 46.5611 11.032 46.0211 11.692C45.4811 12.34 45.2111 12.916 45.2111 13.42V18.478L46.5611 18.568V19H42.2771V18.568L43.4471 18.496V10.864L41.9171 10.792V10.378L45.1391 10.162L45.0491 12.016H45.2291C45.5531 11.38 45.9851 10.9 46.5251 10.576C47.0771 10.252 47.6771 10.09 48.3251 10.09C49.9451 10.09 50.8811 10.738 51.1331 12.034V12.016C51.4571 11.38 51.8891 10.9 52.4291 10.576C52.9811 10.252 53.5811 10.09 54.2291 10.09ZM67.8222 15.634C67.8222 16.654 67.4322 17.506 66.6522 18.19C65.8722 18.862 64.8522 19.198 63.5922 19.198C62.3442 19.198 61.3782 18.922 60.6942 18.37C60.0222 17.818 59.6862 17.128 59.6862 16.3C59.6862 15.46 59.9442 14.746 60.4602 14.158C60.9882 13.558 61.6962 13.132 62.5842 12.88C61.8162 12.472 61.2342 12.04 60.8382 11.584C60.4422 11.116 60.2442 10.516 60.2442 9.784C60.2442 8.836 60.5802 8.086 61.2522 7.534C61.9242 6.982 62.8242 6.706 63.9522 6.706C65.0802 6.706 65.9322 6.958 66.5082 7.462C67.0962 7.954 67.3902 8.59 67.3902 9.37C67.3902 10.15 67.1202 10.81 66.5802 11.35C66.0402 11.89 65.4762 12.19 64.8882 12.25C65.8722 12.754 66.6042 13.246 67.0842 13.726C67.5762 14.206 67.8222 14.842 67.8222 15.634ZM63.7542 18.64C64.3902 18.64 64.9482 18.436 65.4282 18.028C65.9202 17.608 66.1662 17.038 66.1662 16.318C66.1662 15.598 65.9262 15.022 65.4462 14.59C64.9662 14.146 64.2522 13.684 63.3042 13.204C62.7162 13.54 62.2662 13.984 61.9542 14.536C61.6422 15.076 61.4862 15.67 61.4862 16.318C61.4862 16.966 61.7022 17.518 62.1342 17.974C62.5782 18.418 63.1182 18.64 63.7542 18.64ZM63.8262 7.228C63.2862 7.228 62.8062 7.426 62.3862 7.822C61.9782 8.206 61.7742 8.728 61.7742 9.388C61.7742 10.036 61.9782 10.546 62.3862 10.918C62.8062 11.29 63.4302 11.638 64.2582 11.962C65.2542 11.47 65.7522 10.588 65.7522 9.316C65.7522 8.644 65.5662 8.128 65.1942 7.768C64.8222 7.408 64.3662 7.228 63.8262 7.228Z" fill="white"/>
</svg>
