<svg width="16" height="16" viewBox="0 0 16 16" fill="none" xmlns="http://www.w3.org/2000/svg">
<g clip-path="url(#clip0_1_47)">
<path d="M10.6798 11.74C9.47412 12.6758 7.95718 13.117 6.43771 12.9738C4.91824 12.8305 3.51045 12.1137 2.50092 10.969C1.49139 9.82442 0.955984 8.33811 1.0037 6.81265C1.05141 5.2872 1.67866 3.83725 2.75775 2.75797C3.83704 1.67887 5.28698 1.05163 6.81244 1.00391C8.3379 0.956198 9.82421 1.4916 10.9688 2.50113C12.1134 3.51067 12.8303 4.91845 12.9735 6.43792C13.1168 7.95739 12.6756 9.47433 11.7398 10.68L14.7798 13.72C14.8785 13.8116 14.9506 13.9282 14.9887 14.0575C15.0267 14.1867 15.0291 14.3238 14.9958 14.4544C14.9624 14.5849 14.8944 14.704 14.799 14.7991C14.7036 14.8943 14.5844 14.9619 14.4538 14.995C14.3234 15.0284 14.1864 15.0261 14.0572 14.9882C13.9281 14.9504 13.8115 14.8784 13.7198 14.78L10.6798 11.74ZM11.4998 6.99997C11.5086 6.40357 11.3989 5.81136 11.1768 5.25778C10.9547 4.70421 10.6248 4.20032 10.2062 3.77542C9.78755 3.35053 9.28863 3.01311 8.73843 2.78281C8.18822 2.5525 7.59771 2.43389 7.00125 2.43389C6.40479 2.43389 5.81428 2.5525 5.26408 2.78281C4.71388 3.01311 4.21496 3.35053 3.79635 3.77542C3.37775 4.20032 3.04781 4.70421 2.82573 5.25778C2.60365 5.81136 2.49386 6.40357 2.50275 6.99997C2.52037 8.18143 3.00207 9.30853 3.84378 10.1378C4.6855 10.9671 5.81966 11.4319 7.00125 11.4319C8.18285 11.4319 9.31701 10.9671 10.1587 10.1378C11.0004 9.30853 11.4821 8.18143 11.4998 6.99997Z" fill="black"/>
</g>
<defs>
<clipPath id="clip0_1_47">
<rect width="16" height="16" fill="white"/>
</clipPath>
</defs>
</svg>
